<svg width="23" height="21" viewBox="0 0 23 21" fill="none" xmlns="http://www.w3.org/2000/svg">
<path d="M6.10658 16H16.9358C17.8858 16 18.3607 16 18.7478 15.8284C19.0891 15.6771 19.3813 15.4333 19.5912 15.1246C19.8293 14.7744 19.9143 14.3071 20.0842 13.3724L21.435 5.94311C21.4939 5.61918 21.5233 5.45721 21.4778 5.33074C21.4379 5.21979 21.3601 5.12651 21.258 5.06739C21.1417 5 20.9771 5 20.6479 5H4.60658M1.60645 1H2.92285C3.16554 1 3.28688 1 3.38502 1.04433C3.47152 1.0834 3.54511 1.14628 3.59719 1.22563C3.65629 1.31565 3.67521 1.43551 3.71306 1.67523L6.49983 19.3248C6.53768 19.5645 6.55661 19.6843 6.6157 19.7744C6.66778 19.8537 6.74137 19.9166 6.82787 19.9557C6.92601 20 7.04735 20 7.29004 20H18.6064" stroke="black" stroke-width="1.5" stroke-linecap="round" stroke-linejoin="round"/>
</svg>
