<svg width="115" height="43" viewBox="0 0 115 43" fill="none" xmlns="http://www.w3.org/2000/svg">
<g clip-path="url(#clip0_259_98)">
<path d="M27.14 11.544V18.024H12.596C11.516 18.024 10.976 18.492 10.976 19.428V24.72C10.976 25.692 11.516 26.16 12.596 26.16H27.284V33H10.976C5.18 33 2.3 30.66 2.3 25.944V18.6C2.3 13.884 5.18 11.544 10.976 11.544H27.14ZM57.2442 16.548V19.968C57.2442 23.172 55.4082 24.648 51.7722 24.648H38.8122V25.584C38.8122 26.484 39.2802 26.916 40.2522 26.916H56.8842V33H38.0922C33.1602 33 30.4602 30.84 30.4602 26.484V17.52C30.4602 13.488 33.1602 11.544 38.0922 11.544H51.7002C55.4082 11.544 57.2442 13.2 57.2442 16.548ZM47.9922 17.484H40.1802C39.2802 17.484 38.8482 17.88 38.8482 18.708V19.932H47.9922C48.7482 19.932 49.1082 19.572 49.1082 18.816V18.564C49.1082 17.844 48.7482 17.484 47.9922 17.484ZM69.4752 3.48V33H60.8352V3.48H69.4752ZM81.7095 3.48V33H73.0695V3.48H81.7095ZM112.088 18.06V27.024C112.088 31.056 109.712 33 104.384 33H90.8479C87.1399 33 85.3039 31.344 85.3039 27.996V24.576C85.3039 21.372 87.1399 19.752 90.8479 19.752H103.844V18.708C103.844 17.88 103.376 17.448 102.44 17.448H85.6999V11.544H104.168C109.532 11.544 112.088 13.704 112.088 18.06ZM103.808 24.576H94.7359C94.0159 24.576 93.6199 25.008 93.6199 25.584V26.016C93.6199 26.7 93.9799 27.024 94.7359 27.024H102.404C103.412 27.024 103.808 26.628 103.808 25.764V24.576Z" fill="#EF4444"/>
</g>
<defs>
<clipPath id="clip0_259_98">
<rect width="114" height="43" fill="white" transform="translate(0.5)"/>
</clipPath>
</defs>
</svg>
