<svg width="99" height="27" viewBox="0 0 99 27" fill="none" xmlns="http://www.w3.org/2000/svg">
<path d="M22.68 7.928V13.688H9.752C8.792 13.688 8.312 14.104 8.312 14.936V19.64C8.312 20.504 8.792 20.92 9.752 20.92H22.808V27H8.312C3.16 27 0.6 24.92 0.6 20.728V14.2C0.6 10.008 3.16 7.928 8.312 7.928H22.68ZM49.4393 12.376V15.416C49.4393 18.264 47.8073 19.576 44.5753 19.576H33.0553V20.408C33.0553 21.208 33.4713 21.592 34.3353 21.592H49.1193V27H32.4153C28.0312 27 25.6313 25.08 25.6313 21.208V13.24C25.6313 9.656 28.0312 7.928 32.4153 7.928H44.5113C47.8073 7.928 49.4393 9.4 49.4393 12.376ZM41.2153 13.208H34.2713C33.4713 13.208 33.0873 13.56 33.0873 14.296V15.384H41.2153C41.8873 15.384 42.2073 15.064 42.2073 14.392V14.168C42.2073 13.528 41.8873 13.208 41.2153 13.208ZM60.3113 0.759998V27H52.6313V0.759998H60.3113ZM71.1863 0.759998V27H63.5063V0.759998H71.1863ZM98.1893 13.72V21.688C98.1893 25.272 96.0773 27 91.3413 27H79.3093C76.0133 27 74.3813 25.528 74.3813 22.552V19.512C74.3813 16.664 76.0133 15.224 79.3093 15.224H90.8612V14.296C90.8612 13.56 90.4453 13.176 89.6133 13.176H74.7333V7.928H91.1493C95.9173 7.928 98.1893 9.848 98.1893 13.72ZM90.8293 19.512H82.7653C82.1253 19.512 81.7733 19.896 81.7733 20.408V20.792C81.7733 21.4 82.0933 21.688 82.7653 21.688H89.5813C90.4773 21.688 90.8293 21.336 90.8293 20.568V19.512Z" fill="#FBFFF4"/>
</svg>
