<svg width="52" height="52" viewBox="0 0 52 52" fill="none" xmlns="http://www.w3.org/2000/svg">
<path d="M2.09543 18.2329L26 0.865247L49.9046 18.2329L40.7738 46.3344H11.2262L2.09543 18.2329Z" stroke="#EF4444" stroke-width="1.4"/>
<path d="M30 21C30 20.07 30 19.605 29.8978 19.2235C29.6204 18.1883 28.8117 17.3796 27.7765 17.1022C27.395 17 26.93 17 26 17C25.07 17 24.605 17 24.2235 17.1022C23.1883 17.3796 22.3796 18.1883 22.1022 19.2235C22 19.605 22 20.07 22 21M19.2 35H32.8C33.9201 35 34.4802 35 34.908 34.782C35.2843 34.5903 35.5903 34.2843 35.782 33.908C36 33.4802 36 32.9201 36 31.8V24.2C36 23.0799 36 22.5198 35.782 22.092C35.5903 21.7157 35.2843 21.4097 34.908 21.218C34.4802 21 33.9201 21 32.8 21H19.2C18.0799 21 17.5198 21 17.092 21.218C16.7157 21.4097 16.4097 21.7157 16.218 22.092C16 22.5198 16 23.0799 16 24.2V31.8C16 32.9201 16 33.4802 16.218 33.908C16.4097 34.2843 16.7157 34.5903 17.092 34.782C17.5198 35 18.0799 35 19.2 35Z" stroke="#EF4444" stroke-width="1.5" stroke-linecap="round" stroke-linejoin="round"/>
</svg>
