<svg width="52" height="52" viewBox="0 0 52 52" fill="none" xmlns="http://www.w3.org/2000/svg">
<path d="M26 0L50.7275 17.9656L41.2824 47.0344H10.7176L1.27253 17.9656L26 0Z" fill="#EF4444"/>
<path d="M34 35C34 33.6044 34 32.9067 33.8278 32.3389C33.44 31.0605 32.4395 30.06 31.1611 29.6722C30.5933 29.5 29.8956 29.5 28.5 29.5H23.5C22.1044 29.5 21.4067 29.5 20.8389 29.6722C19.5605 30.06 18.56 31.0605 18.1722 32.3389C18 32.9067 18 33.6044 18 35M30.5 21.5C30.5 23.9853 28.4853 26 26 26C23.5147 26 21.5 23.9853 21.5 21.5C21.5 19.0147 23.5147 17 26 17C28.4853 17 30.5 19.0147 30.5 21.5Z" stroke="#FBFFF4" stroke-width="1.5" stroke-linecap="round" stroke-linejoin="round"/>
</svg>
